{"asset":{"version":"2.0","generator":"VECTARY"},"nodes":[{"translation":[-0.013058762274467353,0.025982401736505126,-0.1332336236661537],"scale":[0.00027660267826037574,0.00027660267826037585,0.0002766026782603758],"rotation":[-0.6479803626352527,-0.002356107301028793,0.000715642665150607,0.7616530616055107],"name":"Laptop","children":[1]},{"translation":[0,69.33695554733276,1.2110312744140878e-15],"scale":[1,1,1],"rotation":[0,0,0,1],"name":"Laptop 1","children":[2,3,4,5,6,7,8,9]},{"translation":[0,0,0],"scale":[1,1,1],"rotation":[0,0,0,1],"name":"Screen","mesh":0},{"translation":[0,0,0],"scale":[1,1,1],"rotation":[0,0,0,1],"name":"Keyboard","mesh":1},{"translation":[0,0,0],"scale":[1,1,1],"rotation":[0,0,0,1],"name":"Display Body","mesh":2},{"translation":[0,0,0],"scale":[1,1,1],"rotation":[0,0,0,1],"name":"Touchpad","mesh":3},{"translation":[0,-100.027907371521,1.0210000276565552],"scale":[1,1,1],"rotation":[0,0,0,1],"name":"Body","mesh":4},{"translation":[0,0,0],"scale":[1,1,1],"rotation":[0,0,0,1],"name":"Ports & Others","mesh":5},{"translation":[0,0,0],"scale":[1,1,1],"rotation":[0,0,0,1],"name":"Black Frame","mesh":6},{"translation":[0,0,0],"scale":[1,1,1],"rotation":[0,0,0,1],"name":"Cameras","mesh":7},{"translation":[0.003232438572114214,0.056628310960828335,0.1833283283955666],"scale":[1,1,1],"rotation":[-0.06696278783026599,0.01774380422817934,0.001191036689155267,0.9975969746792119],"name":"Camera","camera":0},{"translation":[-0.034198863303866955,-0.1287223017856994,-0.17339495677190978],"scale":[0.001,0.001,0.001],"rotation":[-0.7071067811865475,0,0,0.7071067811865476],"name":"Rocks","children":[12,13,14]},{"translation":[-45.269380802717805,-9.469907616561045,133.1719959373641],"scale":[2.006473701090759,2.3939839027377987,2.5158161209458814],"rotation":[0.730314350908986,-0.049944558569624084,0.03153573712035935,0.6805527071505538],"name":"Rock small","mesh":8},{"translation":[32.156008056969725,-79.50222886533341,145.02043555005685],"scale":[4.116707999999999,4.971767999999998,3.861733],"rotation":[-0.23611111630001555,-0.28696229579277566,0.8638417903670768,0.3401198946964194],"name":"Rock bottom","mesh":9},{"translation":[72.94954570655358,104.22642805639657,112.53638617010661],"scale":[3.786752529613783,4.814428628449075,8.068703568633753],"rotation":[0.6449957736411026,-0.17928427633714625,0.2547058456980645,0.6978270075101816],"name":"Rock background","mesh":10}],"materials":[{"pbrMetallicRoughness":{"baseColorFactor":[1,1,1,1],"metallicFactor":0.36,"roughnessFactor":0},"name":"Zoya","emissiveTexture":{"index":0,"extensions":{"KHR_texture_transform":{"offset":[0,0],"scale":[1,1],"rotation":0}},"texCoord":0},"emissiveFactor":[1,1,1],"extensions":{},"alphaMode":"OPAQUE","doubleSided":false},{"pbrMetallicRoughness":{"baseColorFactor":[0.7372047873606051,0.7372047873606051,0.7372047873606051,1],"metallicFactor":0.5,"roughnessFactor":1},"name":"Keyboard","emissiveTexture":{"index":1,"extensions":{"KHR_texture_transform":{"offset":[0,0],"scale":[1,1],"rotation":0}},"texCoord":0},"emissiveFactor":[1,1,1],"extensions":{},"alphaMode":"OPAQUE","doubleSided":false},{"pbrMetallicRoughness":{"baseColorFactor":[1,1,1,1],"metallicFactor":0.8,"roughnessFactor":0.4},"name":"Body","emissiveFactor":[0,0,0],"extensions":{},"alphaMode":"OPAQUE","doubleSided":false},{"pbrMetallicRoughness":{"baseColorFactor":[0.8751375823652049,0.8751375823652049,0.8751375823652049,1],"metallicFactor":0.5,"roughnessFactor":0.3},"name":"Touchpad","emissiveFactor":[0,0,0],"extensions":{},"alphaMode":"OPAQUE","doubleSided":false},{"pbrMetallicRoughness":{"baseColorFactor":[0.03561436968491877,0.03561436968491877,0.03561436968491877,1],"metallicFactor":0,"roughnessFactor":0.8},"name":"Rubber","emissiveFactor":[0,0,0],"extensions":{},"alphaMode":"OPAQUE","doubleSided":false},{"pbrMetallicRoughness":{"baseColorFactor":[0,0,0,1],"metallicFactor":0,"roughnessFactor":0},"name":"Display Rim","emissiveFactor":[0,0,0],"extensions":{},"alphaMode":"OPAQUE","doubleSided":false},{"pbrMetallicRoughness":{"baseColorFactor":[0.03287591694838383,0.03287591694838383,0.03287591694838383,1],"metallicFactor":0,"roughnessFactor":0},"name":"Cameras","emissiveFactor":[0,0,0],"extensions":{},"alphaMode":"OPAQUE","doubleSided":false},{"pbrMetallicRoughness":{"baseColorFactor":[0,0,0,1],"metallicFactor":0.98,"roughnessFactor":0.42},"name":"Rock","normalTexture":{"index":2,"scale":1,"extensions":{"KHR_texture_transform":{"offset":[0,0],"scale":[1,1],"rotation":0}},"texCoord":0},"emissiveFactor":[0,0,0],"extensions":{},"alphaMode":"OPAQUE","doubleSided":false}],"textures":[{"sampler":0,"source":0},{"sampler":0,"source":1},{"sampler":0,"source":2}],"images":[{"uri":"captura_light_solo_logo.jpg","mimeType":"image/jpeg"},{"uri":"Keys_Emission.jpg","mimeType":"image/jpeg"},{"uri":"Stone_2k_Normal.jpg","mimeType":"image/jpeg"}],"samplers":[{"wrapS":10497,"wrapT":10497}],"meshes":[{"primitives":[{"mode":4,"attributes":{"POSITION":1,"NORMAL":2,"TEXCOORD_0":3},"material":0,"indices":0}]},{"primitives":[{"mode":4,"attributes":{"POSITION":5,"NORMAL":6,"TEXCOORD_0":7},"material":1,"indices":4}]},{"primitives":[{"mode":4,"attributes":{"POSITION":9,"NORMAL":10,"TEXCOORD_0":11,"TEXCOORD_1":12},"material":2,"indices":8}]},{"primitives":[{"mode":4,"attributes":{"POSITION":14,"NORMAL":15,"TEXCOORD_0":16,"TEXCOORD_1":17},"material":3,"indices":13}]},{"primitives":[{"mode":4,"attributes":{"POSITION":19,"NORMAL":20,"TEXCOORD_0":21,"TEXCOORD_1":22},"material":2,"indices":18}]},{"primitives":[{"mode":4,"attributes":{"POSITION":24,"NORMAL":25,"TEXCOORD_0":26,"TEXCOORD_1":27},"material":4,"indices":23}]},{"primitives":[{"mode":4,"attributes":{"POSITION":29,"NORMAL":30,"TEXCOORD_0":31,"TEXCOORD_1":32},"material":5,"indices":28}]},{"primitives":[{"mode":4,"attributes":{"POSITION":34,"NORMAL":35,"TEXCOORD_0":36,"TEXCOORD_1":37},"material":6,"indices":33}]},{"primitives":[{"mode":4,"attributes":{"POSITION":39,"NORMAL":40,"TEXCOORD_0":41},"material":7,"indices":38}]},{"primitives":[{"mode":4,"attributes":{"POSITION":43,"NORMAL":44,"TEXCOORD_0":45},"material":7,"indices":42}]},{"primitives":[{"mode":4,"attributes":{"POSITION":47,"NORMAL":48,"TEXCOORD_0":49},"material":7,"indices":46}]}],"accessors":[{"bufferView":0,"byteOffset":0,"componentType":5125,"count":120,"type":"SCALAR"},{"bufferView":1,"byteOffset":0,"componentType":5126,"count":33,"max":[160.3748016357422,77.24589538574219,231.79380798339844],"min":[-160.3748016357422,26.774999618530273,23.7760009765625],"type":"VEC3"},{"bufferView":2,"byteOffset":0,"componentType":5126,"count":33,"type":"VEC3"},{"bufferView":3,"byteOffset":0,"componentType":5126,"count":33,"type":"VEC2"},{"bufferView":4,"byteOffset":0,"componentType":5125,"count":62220,"type":"SCALAR"},{"bufferView":5,"byteOffset":0,"componentType":5126,"count":13820,"max":[137.82989501953125,-6.344000339508057,11.744999885559082],"min":[-137.82989501953125,-107.44589233398438,7.447000026702881],"type":"VEC3"},{"bufferView":6,"byteOffset":0,"componentType":5126,"count":13820,"type":"VEC3"},{"bufferView":7,"byteOffset":0,"componentType":5126,"count":13820,"type":"VEC2"},{"bufferView":8,"byteOffset":0,"componentType":5125,"count":10494,"type":"SCALAR"},{"bufferView":9,"byteOffset":0,"componentType":5126,"count":2411,"max":[170.19979858398438,83.0969009399414,240.93380737304688],"min":[-170.19979858398438,16.000995635986328,3.1800003051757812],"type":"VEC3"},{"bufferView":10,"byteOffset":0,"componentType":5126,"count":2411,"type":"VEC3"},{"bufferView":11,"byteOffset":0,"componentType":5126,"count":2411,"type":"VEC2"},{"bufferView":12,"byteOffset":0,"componentType":5126,"count":2411,"type":"VEC2"},{"bufferView":13,"byteOffset":0,"componentType":5125,"count":180,"type":"SCALAR"},{"bufferView":14,"byteOffset":0,"componentType":5126,"count":52,"max":[57.53689956665039,-128.23289489746094,8.604000091552734],"min":[-57.53689956665039,-204.75180053710938,6.785000324249268],"type":"VEC3"},{"bufferView":15,"byteOffset":0,"componentType":5126,"count":52,"type":"VEC3"},{"bufferView":16,"byteOffset":0,"componentType":5126,"count":52,"type":"VEC2"},{"bufferView":17,"byteOffset":0,"componentType":5126,"count":52,"type":"VEC2"},{"bufferView":18,"byteOffset":0,"componentType":5125,"count":69258,"type":"SCALAR"},{"bufferView":19,"byteOffset":0,"componentType":5126,"count":21197,"max":[170.19979858398438,121.74290466308594,11.388999938964844],"min":[-170.19979858398438,-121.74290466308594,-1.1102230246251565e-15],"type":"VEC3"},{"bufferView":20,"byteOffset":0,"componentType":5126,"count":21197,"type":"VEC3"},{"bufferView":21,"byteOffset":0,"componentType":5126,"count":21197,"type":"VEC2"},{"bufferView":22,"byteOffset":0,"componentType":5126,"count":21197,"type":"VEC2"},{"bufferView":23,"byteOffset":0,"componentType":5125,"count":27114,"type":"SCALAR"},{"bufferView":24,"byteOffset":0,"componentType":5126,"count":7018,"max":[168.5518035888672,11.84499740600586,9.856999397277832],"min":[-167.966796875,-213.33580017089844,-1.2110312744140878e-15],"type":"VEC3"},{"bufferView":25,"byteOffset":0,"componentType":5126,"count":7018,"type":"VEC3"},{"bufferView":26,"byteOffset":0,"componentType":5126,"count":7018,"type":"VEC2"},{"bufferView":27,"byteOffset":0,"componentType":5126,"count":7018,"type":"VEC2"},{"bufferView":28,"byteOffset":0,"componentType":5125,"count":846,"type":"SCALAR"},{"bufferView":29,"byteOffset":0,"componentType":5126,"count":275,"max":[169.17979431152344,80.17591094970703,239.9427947998047],"min":[-169.17979431152344,22.338001251220703,5.256999969482422],"type":"VEC3"},{"bufferView":30,"byteOffset":0,"componentType":5126,"count":275,"type":"VEC3"},{"bufferView":31,"byteOffset":0,"componentType":5126,"count":275,"type":"VEC2"},{"bufferView":32,"byteOffset":0,"componentType":5126,"count":275,"type":"VEC2"},{"bufferView":33,"byteOffset":0,"componentType":5125,"count":252,"type":"SCALAR"},{"bufferView":34,"byteOffset":0,"componentType":5126,"count":171,"max":[46.134002685546875,78.50189971923828,236.97080993652344],"min":[-46.134002685546875,77.8488998413086,234.2808074951172],"type":"VEC3"},{"bufferView":35,"byteOffset":0,"componentType":5126,"count":171,"type":"VEC3"},{"bufferView":36,"byteOffset":0,"componentType":5126,"count":171,"type":"VEC2"},{"bufferView":37,"byteOffset":0,"componentType":5126,"count":171,"type":"VEC2"},{"bufferView":38,"byteOffset":0,"componentType":5125,"count":57600,"type":"SCALAR"},{"bufferView":39,"byteOffset":0,"componentType":5126,"count":12193,"max":[22.498600006103516,9.213199615478516,24.286300659179688],"min":[-22.498600006103516,-9.213199615478516,1.7763568394002505e-15],"type":"VEC3"},{"bufferView":40,"byteOffset":0,"componentType":5126,"count":12193,"type":"VEC3"},{"bufferView":41,"byteOffset":0,"componentType":5126,"count":12193,"type":"VEC2"},{"bufferView":42,"byteOffset":0,"componentType":5125,"count":57600,"type":"SCALAR"},{"bufferView":43,"byteOffset":0,"componentType":5126,"count":12193,"max":[20.36663055419922,15.811530113220215,6.177880764007568],"min":[-22.47857666015625,-2.618223190307617,-18.908447265625],"type":"VEC3"},{"bufferView":44,"byteOffset":0,"componentType":5126,"count":12193,"type":"VEC3"},{"bufferView":45,"byteOffset":0,"componentType":5126,"count":12193,"type":"VEC2"},{"bufferView":46,"byteOffset":0,"componentType":5125,"count":57600,"type":"SCALAR"},{"bufferView":47,"byteOffset":0,"componentType":5126,"count":12193,"max":[22.498600006103516,9.213199615478516,24.286300659179688],"min":[-22.498600006103516,-9.213199615478516,1.7763568394002505e-15],"type":"VEC3"},{"bufferView":48,"byteOffset":0,"componentType":5126,"count":12193,"type":"VEC3"},{"bufferView":49,"byteOffset":0,"componentType":5126,"count":12193,"type":"VEC2"}],"bufferViews":[{"buffer":0,"byteOffset":0,"byteLength":480,"target":34963},{"buffer":0,"byteOffset":480,"byteLength":396,"target":34962},{"buffer":0,"byteOffset":876,"byteLength":396,"target":34962},{"buffer":0,"byteOffset":1272,"byteLength":264,"target":34962},{"buffer":0,"byteOffset":1536,"byteLength":248880,"target":34963},{"buffer":0,"byteOffset":250416,"byteLength":165840,"target":34962},{"buffer":0,"byteOffset":416256,"byteLength":165840,"target":34962},{"buffer":0,"byteOffset":582096,"byteLength":110560,"target":34962},{"buffer":0,"byteOffset":692656,"byteLength":41976,"target":34963},{"buffer":0,"byteOffset":734632,"byteLength":28932,"target":34962},{"buffer":0,"byteOffset":763564,"byteLength":28932,"target":34962},{"buffer":0,"byteOffset":792496,"byteLength":19288,"target":34962},{"buffer":0,"byteOffset":811784,"byteLength":19288,"target":34962},{"buffer":0,"byteOffset":831072,"byteLength":720,"target":34963},{"buffer":0,"byteOffset":831792,"byteLength":624,"target":34962},{"buffer":0,"byteOffset":832416,"byteLength":624,"target":34962},{"buffer":0,"byteOffset":833040,"byteLength":416,"target":34962},{"buffer":0,"byteOffset":833456,"byteLength":416,"target":34962},{"buffer":0,"byteOffset":833872,"byteLength":277032,"target":34963},{"buffer":0,"byteOffset":1110904,"byteLength":254364,"target":34962},{"buffer":0,"byteOffset":1365268,"byteLength":254364,"target":34962},{"buffer":0,"byteOffset":1619632,"byteLength":169576,"target":34962},{"buffer":0,"byteOffset":1789208,"byteLength":169576,"target":34962},{"buffer":0,"byteOffset":1958784,"byteLength":108456,"target":34963},{"buffer":0,"byteOffset":2067240,"byteLength":84216,"target":34962},{"buffer":0,"byteOffset":2151456,"byteLength":84216,"target":34962},{"buffer":0,"byteOffset":2235672,"byteLength":56144,"target":34962},{"buffer":0,"byteOffset":2291816,"byteLength":56144,"target":34962},{"buffer":0,"byteOffset":2347960,"byteLength":3384,"target":34963},{"buffer":0,"byteOffset":2351344,"byteLength":3300,"target":34962},{"buffer":0,"byteOffset":2354644,"byteLength":3300,"target":34962},{"buffer":0,"byteOffset":2357944,"byteLength":2200,"target":34962},{"buffer":0,"byteOffset":2360144,"byteLength":2200,"target":34962},{"buffer":0,"byteOffset":2362344,"byteLength":1008,"target":34963},{"buffer":0,"byteOffset":2363352,"byteLength":2052,"target":34962},{"buffer":0,"byteOffset":2365404,"byteLength":2052,"target":34962},{"buffer":0,"byteOffset":2367456,"byteLength":1368,"target":34962},{"buffer":0,"byteOffset":2368824,"byteLength":1368,"target":34962},{"buffer":0,"byteOffset":2370192,"byteLength":230400,"target":34963},{"buffer":0,"byteOffset":2600592,"byteLength":146316,"target":34962},{"buffer":0,"byteOffset":2746908,"byteLength":146316,"target":34962},{"buffer":0,"byteOffset":2893224,"byteLength":97544,"target":34962},{"buffer":0,"byteOffset":2990768,"byteLength":230400,"target":34963},{"buffer":0,"byteOffset":3221168,"byteLength":146316,"target":34962},{"buffer":0,"byteOffset":3367484,"byteLength":146316,"target":34962},{"buffer":0,"byteOffset":3513800,"byteLength":97544,"target":34962},{"buffer":0,"byteOffset":3611344,"byteLength":230400,"target":34963},{"buffer":0,"byteOffset":3841744,"byteLength":146316,"target":34962},{"buffer":0,"byteOffset":3988060,"byteLength":146316,"target":34962},{"buffer":0,"byteOffset":4134376,"byteLength":97544,"target":34962}],"cameras":[{"name":"Camera","type":"perspective","extras":{"targetDistance":0.2694831747125441},"perspective":{"aspectRatio":1.5240328253223916,"yfov":0.7696902001294993,"zfar":30.203380977174398,"znear":0.01080553007714535}}],"scene":0,"scenes":[{"nodes":[0,10,11],"name":"Alabama_s"}],"extensionsUsed":["KHR_texture_transform"],"buffers":[{"byteLength":4231920,"uri":"Alabama_s.bin"}]}