{"asset":{"version":"2.0","generator":"VECTARY"},"nodes":[{"translation":[-0.013058762274467353,0.025982401736505126,-0.1332336236661537],"scale":[0.00027660267826037574,0.00027660267826037585,0.0002766026782603758],"rotation":[-0.6479803626352527,-0.002356107301028793,0.000715642665150607,0.7616530616055107],"name":"Laptop","children":[1]},{"translation":[0,69.33695554733276,1.2110312744140878e-15],"scale":[1,1,1],"rotation":[0,0,0,1],"name":"Laptop 1","children":[2,3,4,5,6,7]},{"translation":[0,0,0],"scale":[1,1,1],"rotation":[0,0,0,1],"name":"Screen","mesh":0},{"translation":[0,0,0],"scale":[1,1,1],"rotation":[0,0,0,1],"name":"Keyboard","mesh":1},{"translation":[0,0,0],"scale":[1,1,1],"rotation":[0,0,0,1],"name":"Display Body","mesh":2},{"translation":[0,0,0],"scale":[1,1,1],"rotation":[0,0,0,1],"name":"Touchpad","mesh":3},{"translation":[0,-100.027907371521,1.0210000276565552],"scale":[1,1,1],"rotation":[0,0,0,1],"name":"Body","mesh":4},{"translation":[0,0,0],"scale":[1,1,1],"rotation":[0,0,0,1],"name":"Black Frame","mesh":5},{"translation":[0.003232438572114214,0.056628310960828335,0.1833283283955666],"scale":[1,1,1],"rotation":[-0.06696278783026596,0.01774380422817934,0.0011910366891553226,0.9975969746792119],"name":"Camera","camera":0},{"translation":[-0.034198863303866955,-0.1287223017856994,-0.17339495677190978],"scale":[0.001,0.001,0.001],"rotation":[-0.7071067811865475,0,0,0.7071067811865476],"name":"Rocks","children":[10]},{"translation":[32.156008056969725,-79.50222886533341,145.02043555005685],"scale":[4.116707999999999,4.971767999999998,3.861733],"rotation":[-0.23611111630001555,-0.28696229579277566,0.8638417903670768,0.3401198946964194],"name":"Rock bottom","mesh":6}],"materials":[{"pbrMetallicRoughness":{"baseColorFactor":[1,1,1,1],"metallicFactor":0.36,"roughnessFactor":0},"name":"Zoya","emissiveTexture":{"index":0,"extensions":{"KHR_texture_transform":{"offset":[0,0],"scale":[1,1],"rotation":0}},"texCoord":0},"emissiveFactor":[1,1,1],"extensions":{},"alphaMode":"OPAQUE","doubleSided":false},{"pbrMetallicRoughness":{"baseColorFactor":[0.7372047873606051,0.7372047873606051,0.7372047873606051,1],"metallicFactor":0.5,"roughnessFactor":1},"name":"Keyboard","emissiveTexture":{"index":1,"extensions":{"KHR_texture_transform":{"offset":[0,0],"scale":[1,1],"rotation":0}},"texCoord":0},"emissiveFactor":[1,1,1],"extensions":{},"alphaMode":"OPAQUE","doubleSided":false},{"pbrMetallicRoughness":{"baseColorFactor":[1,1,1,1],"metallicFactor":0.8,"roughnessFactor":0.4},"name":"Body","emissiveFactor":[0,0,0],"extensions":{},"alphaMode":"OPAQUE","doubleSided":false},{"pbrMetallicRoughness":{"baseColorFactor":[0.8751375823652049,0.8751375823652049,0.8751375823652049,1],"metallicFactor":0.5,"roughnessFactor":0.3},"name":"Touchpad","emissiveFactor":[0,0,0],"extensions":{},"alphaMode":"OPAQUE","doubleSided":false},{"pbrMetallicRoughness":{"baseColorFactor":[0,0,0,1],"metallicFactor":0,"roughnessFactor":0},"name":"Display Rim","emissiveFactor":[0,0,0],"extensions":{},"alphaMode":"OPAQUE","doubleSided":false},{"pbrMetallicRoughness":{"baseColorFactor":[0,0,0,1],"metallicFactor":0.98,"roughnessFactor":0.42},"name":"Rock","normalTexture":{"index":2,"scale":1,"extensions":{"KHR_texture_transform":{"offset":[0,0],"scale":[1,1],"rotation":0}},"texCoord":0},"emissiveFactor":[0,0,0],"extensions":{},"alphaMode":"OPAQUE","doubleSided":false}],"textures":[{"sampler":0,"source":0},{"sampler":0,"source":1},{"sampler":0,"source":2}],"images":[{"uri":"captura_light_solo_logo.jpg","mimeType":"image/jpeg"},{"uri":"Keys_Emission.jpg","mimeType":"image/jpeg"},{"uri":"Stone_2k_Normal.jpg","mimeType":"image/jpeg"}],"samplers":[{"wrapS":10497,"wrapT":10497}],"meshes":[{"primitives":[{"mode":4,"attributes":{"POSITION":1,"NORMAL":2,"TEXCOORD_0":3},"material":0,"indices":0}]},{"primitives":[{"mode":4,"attributes":{"POSITION":5,"NORMAL":6,"TEXCOORD_0":7},"material":1,"indices":4}]},{"primitives":[{"mode":4,"attributes":{"POSITION":9,"NORMAL":10,"TEXCOORD_0":11,"TEXCOORD_1":12},"material":2,"indices":8}]},{"primitives":[{"mode":4,"attributes":{"POSITION":14,"NORMAL":15,"TEXCOORD_0":16,"TEXCOORD_1":17},"material":3,"indices":13}]},{"primitives":[{"mode":4,"attributes":{"POSITION":19,"NORMAL":20,"TEXCOORD_0":21,"TEXCOORD_1":22},"material":2,"indices":18}]},{"primitives":[{"mode":4,"attributes":{"POSITION":24,"NORMAL":25,"TEXCOORD_0":26,"TEXCOORD_1":27},"material":4,"indices":23}]},{"primitives":[{"mode":4,"attributes":{"POSITION":29,"NORMAL":30,"TEXCOORD_0":31},"material":5,"indices":28}]}],"accessors":[{"bufferView":0,"byteOffset":0,"componentType":5125,"count":120,"type":"SCALAR"},{"bufferView":1,"byteOffset":0,"componentType":5126,"count":33,"max":[160.3748016357422,77.24589538574219,231.79380798339844],"min":[-160.3748016357422,26.774999618530273,23.7760009765625],"type":"VEC3"},{"bufferView":2,"byteOffset":0,"componentType":5126,"count":33,"type":"VEC3"},{"bufferView":3,"byteOffset":0,"componentType":5126,"count":33,"type":"VEC2"},{"bufferView":4,"byteOffset":0,"componentType":5125,"count":62220,"type":"SCALAR"},{"bufferView":5,"byteOffset":0,"componentType":5126,"count":13820,"max":[137.82989501953125,-6.344000339508057,11.744999885559082],"min":[-137.82989501953125,-107.44589233398438,7.447000026702881],"type":"VEC3"},{"bufferView":6,"byteOffset":0,"componentType":5126,"count":13820,"type":"VEC3"},{"bufferView":7,"byteOffset":0,"componentType":5126,"count":13820,"type":"VEC2"},{"bufferView":8,"byteOffset":0,"componentType":5125,"count":10494,"type":"SCALAR"},{"bufferView":9,"byteOffset":0,"componentType":5126,"count":2411,"max":[170.19979858398438,83.0969009399414,240.93380737304688],"min":[-170.19979858398438,16.000995635986328,3.1800003051757812],"type":"VEC3"},{"bufferView":10,"byteOffset":0,"componentType":5126,"count":2411,"type":"VEC3"},{"bufferView":11,"byteOffset":0,"componentType":5126,"count":2411,"type":"VEC2"},{"bufferView":12,"byteOffset":0,"componentType":5126,"count":2411,"type":"VEC2"},{"bufferView":13,"byteOffset":0,"componentType":5125,"count":180,"type":"SCALAR"},{"bufferView":14,"byteOffset":0,"componentType":5126,"count":52,"max":[57.53689956665039,-128.23289489746094,8.604000091552734],"min":[-57.53689956665039,-204.75180053710938,6.785000324249268],"type":"VEC3"},{"bufferView":15,"byteOffset":0,"componentType":5126,"count":52,"type":"VEC3"},{"bufferView":16,"byteOffset":0,"componentType":5126,"count":52,"type":"VEC2"},{"bufferView":17,"byteOffset":0,"componentType":5126,"count":52,"type":"VEC2"},{"bufferView":18,"byteOffset":0,"componentType":5125,"count":69258,"type":"SCALAR"},{"bufferView":19,"byteOffset":0,"componentType":5126,"count":21197,"max":[170.19979858398438,121.74290466308594,11.388999938964844],"min":[-170.19979858398438,-121.74290466308594,-1.1102230246251565e-15],"type":"VEC3"},{"bufferView":20,"byteOffset":0,"componentType":5126,"count":21197,"type":"VEC3"},{"bufferView":21,"byteOffset":0,"componentType":5126,"count":21197,"type":"VEC2"},{"bufferView":22,"byteOffset":0,"componentType":5126,"count":21197,"type":"VEC2"},{"bufferView":23,"byteOffset":0,"componentType":5125,"count":846,"type":"SCALAR"},{"bufferView":24,"byteOffset":0,"componentType":5126,"count":275,"max":[169.17979431152344,80.17591094970703,239.9427947998047],"min":[-169.17979431152344,22.338001251220703,5.256999969482422],"type":"VEC3"},{"bufferView":25,"byteOffset":0,"componentType":5126,"count":275,"type":"VEC3"},{"bufferView":26,"byteOffset":0,"componentType":5126,"count":275,"type":"VEC2"},{"bufferView":27,"byteOffset":0,"componentType":5126,"count":275,"type":"VEC2"},{"bufferView":28,"byteOffset":0,"componentType":5125,"count":57600,"type":"SCALAR"},{"bufferView":29,"byteOffset":0,"componentType":5126,"count":12193,"max":[20.36663055419922,15.811530113220215,6.177880764007568],"min":[-22.47857666015625,-2.618223190307617,-18.908447265625],"type":"VEC3"},{"bufferView":30,"byteOffset":0,"componentType":5126,"count":12193,"type":"VEC3"},{"bufferView":31,"byteOffset":0,"componentType":5126,"count":12193,"type":"VEC2"}],"bufferViews":[{"buffer":0,"byteOffset":0,"byteLength":480,"target":34963},{"buffer":0,"byteOffset":480,"byteLength":396,"target":34962},{"buffer":0,"byteOffset":876,"byteLength":396,"target":34962},{"buffer":0,"byteOffset":1272,"byteLength":264,"target":34962},{"buffer":0,"byteOffset":1536,"byteLength":248880,"target":34963},{"buffer":0,"byteOffset":250416,"byteLength":165840,"target":34962},{"buffer":0,"byteOffset":416256,"byteLength":165840,"target":34962},{"buffer":0,"byteOffset":582096,"byteLength":110560,"target":34962},{"buffer":0,"byteOffset":692656,"byteLength":41976,"target":34963},{"buffer":0,"byteOffset":734632,"byteLength":28932,"target":34962},{"buffer":0,"byteOffset":763564,"byteLength":28932,"target":34962},{"buffer":0,"byteOffset":792496,"byteLength":19288,"target":34962},{"buffer":0,"byteOffset":811784,"byteLength":19288,"target":34962},{"buffer":0,"byteOffset":831072,"byteLength":720,"target":34963},{"buffer":0,"byteOffset":831792,"byteLength":624,"target":34962},{"buffer":0,"byteOffset":832416,"byteLength":624,"target":34962},{"buffer":0,"byteOffset":833040,"byteLength":416,"target":34962},{"buffer":0,"byteOffset":833456,"byteLength":416,"target":34962},{"buffer":0,"byteOffset":833872,"byteLength":277032,"target":34963},{"buffer":0,"byteOffset":1110904,"byteLength":254364,"target":34962},{"buffer":0,"byteOffset":1365268,"byteLength":254364,"target":34962},{"buffer":0,"byteOffset":1619632,"byteLength":169576,"target":34962},{"buffer":0,"byteOffset":1789208,"byteLength":169576,"target":34962},{"buffer":0,"byteOffset":1958784,"byteLength":3384,"target":34963},{"buffer":0,"byteOffset":1962168,"byteLength":3300,"target":34962},{"buffer":0,"byteOffset":1965468,"byteLength":3300,"target":34962},{"buffer":0,"byteOffset":1968768,"byteLength":2200,"target":34962},{"buffer":0,"byteOffset":1970968,"byteLength":2200,"target":34962},{"buffer":0,"byteOffset":1973168,"byteLength":230400,"target":34963},{"buffer":0,"byteOffset":2203568,"byteLength":146316,"target":34962},{"buffer":0,"byteOffset":2349884,"byteLength":146316,"target":34962},{"buffer":0,"byteOffset":2496200,"byteLength":97544,"target":34962}],"cameras":[{"name":"Camera","type":"perspective","extras":{"targetDistance":0.2694831747125441},"perspective":{"aspectRatio":1.5240328253223916,"yfov":0.7696902001294993,"zfar":30.203380977174398,"znear":0.01080553007714535}}],"scene":0,"scenes":[{"nodes":[0,8,9],"name":"Alabama_s"}],"extensionsUsed":["KHR_texture_transform"],"buffers":[{"byteLength":2593744,"uri":"Alabama_s.bin"}]}